<svg width="29" height="29" viewBox="0 0 29 29" fill="none" xmlns="http://www.w3.org/2000/svg">
<rect x="0.401563" y="1.27217" width="27.4" height="27.4" rx="6.9" fill="#4A5568"/>
<rect x="0.401563" y="1.27217" width="27.4" height="27.4" rx="6.9" fill="url(#paint0_linear_703_379)"/>
<path d="M10.9328 11.7992C12.4006 11.7992 13.708 12.4834 14.5552 13.5498C14.7461 13.7901 15.1279 13.7357 15.2401 13.45C15.4689 12.8674 15.5832 12.2273 15.554 11.5569C15.448 9.12339 13.4329 7.17079 10.9973 7.13756C8.4131 7.1023 6.30713 9.18662 6.30713 11.7628C6.30713 12.3586 6.42026 12.9278 6.62572 13.4506C6.73787 13.7361 7.11962 13.79 7.31035 13.5499C8.15753 12.4835 9.46497 11.7992 10.9328 11.7992Z" fill="white"/>
<path d="M10.9328 11.7992C12.4006 11.7992 13.708 12.4834 14.5552 13.5498C14.7461 13.7901 15.1279 13.7357 15.2401 13.45C15.4689 12.8674 15.5832 12.2273 15.554 11.5569C15.448 9.12339 13.4329 7.17079 10.9973 7.13756C8.4131 7.1023 6.30713 9.18662 6.30713 11.7628C6.30713 12.3586 6.42026 12.9278 6.62572 13.4506C6.73787 13.7361 7.11962 13.79 7.31035 13.5499C8.15753 12.4835 9.46497 11.7992 10.9328 11.7992Z" fill="white"/>
<path d="M17.2703 18.1451C15.8025 18.1451 14.4952 17.4609 13.648 16.3945C13.457 16.1542 13.0752 16.2086 12.963 16.4943C12.7342 17.0769 12.6199 17.717 12.6492 18.3874C12.7552 20.8209 14.7702 22.7735 17.2058 22.8068C19.79 22.842 21.896 20.7577 21.896 18.1815C21.896 17.5857 21.7829 17.0165 21.5774 16.4937C21.4653 16.2083 21.0835 16.1543 20.8928 16.3944C20.0456 17.4609 18.7382 18.1451 17.2703 18.1451Z" fill="white"/>
<path d="M17.2703 18.1451C15.8025 18.1451 14.4952 17.4609 13.648 16.3945C13.457 16.1542 13.0752 16.2086 12.963 16.4943C12.7342 17.0769 12.6199 17.717 12.6492 18.3874C12.7552 20.8209 14.7702 22.7735 17.2058 22.8068C19.79 22.842 21.896 20.7577 21.896 18.1815C21.896 17.5857 21.7829 17.0165 21.5774 16.4937C21.4653 16.2083 21.0835 16.1543 20.8928 16.3944C20.0456 17.4609 18.7382 18.1451 17.2703 18.1451Z" fill="white"/>
<path d="M11.0015 18.2138C11.0015 16.746 11.6856 15.4386 12.7521 14.5914C12.9924 14.4005 12.938 14.0187 12.6523 13.9064C12.0697 13.6776 11.4296 13.5634 10.7592 13.5926C8.32563 13.6986 6.37303 15.7137 6.33981 18.1492C6.30455 20.7335 8.38886 22.8394 10.965 22.8394C11.5609 22.8394 12.13 22.7263 12.6529 22.5209C12.9383 22.4087 12.9922 22.027 12.7521 21.8362C11.6857 20.989 11.0015 19.6816 11.0015 18.2138Z" fill="white"/>
<path d="M11.0015 18.2138C11.0015 16.746 11.6856 15.4386 12.7521 14.5914C12.9924 14.4005 12.938 14.0187 12.6523 13.9064C12.0697 13.6776 11.4296 13.5634 10.7592 13.5926C8.32563 13.6986 6.37303 15.7137 6.33981 18.1492C6.30455 20.7335 8.38886 22.8394 10.965 22.8394C11.5609 22.8394 12.13 22.7263 12.6529 22.5209C12.9383 22.4087 12.9922 22.027 12.7521 21.8362C11.6857 20.989 11.0015 19.6816 11.0015 18.2138Z" fill="white"/>
<path d="M17.2016 11.7305C17.2016 13.1984 16.5175 14.5057 15.4511 15.3529C15.2108 15.5439 15.2652 15.9257 15.5509 16.0379C16.1334 16.2667 16.7736 16.3809 17.444 16.3517C19.8775 16.2457 21.8301 14.2307 21.8633 11.7951C21.8985 9.21086 19.8143 7.10489 17.2381 7.10489C16.6423 7.10489 16.0731 7.21802 15.5502 7.42348C15.2648 7.53563 15.2109 7.91737 15.451 8.10811C16.5174 8.95529 17.2016 10.2627 17.2016 11.7305Z" fill="white"/>
<path d="M17.2016 11.7305C17.2016 13.1984 16.5175 14.5057 15.4511 15.3529C15.2108 15.5439 15.2652 15.9257 15.5509 16.0379C16.1334 16.2667 16.7736 16.3809 17.444 16.3517C19.8775 16.2457 21.8301 14.2307 21.8633 11.7951C21.8985 9.21086 19.8143 7.10489 17.2381 7.10489C16.6423 7.10489 16.0731 7.21802 15.5502 7.42348C15.2648 7.53563 15.2109 7.91737 15.451 8.10811C16.5174 8.95529 17.2016 10.2627 17.2016 11.7305Z" fill="white"/>
<rect x="0.401563" y="1.27217" width="27.4" height="27.4" rx="6.9" stroke="#4A5568" stroke-width="0.6"/>
<rect x="0.401563" y="1.27217" width="27.4" height="27.4" rx="6.9" stroke="url(#paint1_linear_703_379)" stroke-width="0.6"/>
<defs>
<linearGradient id="paint0_linear_703_379" x1="0.101562" y1="0.972168" x2="22.1033" y2="33.0822" gradientUnits="userSpaceOnUse">
<stop stop-color="#0084FF"/>
<stop offset="1" stop-color="#FF158D"/>
</linearGradient>
<linearGradient id="paint1_linear_703_379" x1="0.101562" y1="0.972168" x2="22.1033" y2="33.0822" gradientUnits="userSpaceOnUse">
<stop stop-color="#0084FF"/>
<stop offset="1" stop-color="#FF158D"/>
</linearGradient>
</defs>
</svg>
