<svg width="9" height="9" viewBox="0 0 9 9" fill="none" xmlns="http://www.w3.org/2000/svg">
<path d="M3.53667 2.72758C3.11377 2.72758 2.77094 3.07041 2.77094 3.49331V5.02477C2.77094 5.44767 3.11377 5.7905 3.53667 5.7905H5.06813C5.49103 5.7905 5.83386 5.44767 5.83386 5.02477V3.49331C5.83386 3.07041 5.49103 2.72758 5.06813 2.72758H3.53667Z" fill="black"/>
<path d="M0.218506 2.21709C0.218506 1.65323 0.675611 1.19612 1.23948 1.19612H7.36532C7.92918 1.19612 8.38629 1.65323 8.38629 2.21709V6.30099C8.38629 6.86485 7.92918 7.32196 7.36532 7.32196H1.23948C0.675611 7.32196 0.218506 6.86485 0.218506 6.30099V2.21709ZM7.8758 2.21709C7.8758 1.93516 7.64725 1.70661 7.36532 1.70661H1.23948C0.957545 1.70661 0.728992 1.93516 0.728992 2.21709V6.30099C0.728992 6.58292 0.957545 6.81147 1.23948 6.81147H7.36532C7.64725 6.81147 7.8758 6.58292 7.8758 6.30099V2.21709Z" fill="black"/>
</svg>
