<svg width="24" height="24" viewBox="0 0 24 24" fill="none" xmlns="http://www.w3.org/2000/svg">
<path d="M14.503 1.29644L11.9999 0L9.4969 1.29644L6.70987 1.71885L5.4469 4.23894L3.44043 6.21885L3.89994 9L3.44043 11.7812L5.4469 13.7611L6.70987 16.2812L9.4969 16.7036L11.9999 18L14.503 16.7036L17.29 16.2812L18.553 13.7611L20.5594 11.7812L20.0999 9L20.5594 6.21885L18.553 4.23894L17.29 1.71885L14.503 1.29644ZM16.2971 3.08549L17.323 5.13257L18.9529 6.74086L18.5796 9L18.9529 11.2591L17.323 12.8674L16.2971 14.9145L14.0332 15.2576L11.9999 16.3107L9.96671 15.2576L7.70279 14.9145L6.67688 12.8674L5.04701 11.2591L5.42027 9L5.04701 6.74086L6.67688 5.13257L7.70279 3.08549L9.96671 2.74237L11.9999 1.68926L14.0332 2.74237L16.2971 3.08549Z" fill="white"/>
<path d="M5.99994 17.6907V24L11.9999 22.5L17.9999 24V17.6907L14.9728 18.1495L11.9999 19.6893L9.02708 18.1495L5.99994 17.6907Z" fill="white"/>
</svg>
