<svg width="19" height="20" viewBox="0 0 19 20" fill="none" xmlns="http://www.w3.org/2000/svg">
<path d="M18.8954 10.0209C18.8954 15.1817 14.7117 19.3654 9.55092 19.3654C4.3901 19.3654 0.206421 15.1817 0.206421 10.0209C0.206421 4.86007 4.3901 0.676392 9.55092 0.676392C14.7117 0.676392 18.8954 4.86007 18.8954 10.0209ZM14.2586 6.48127C13.9165 6.13916 13.3618 6.13916 13.0197 6.48127C13.0114 6.48954 13.0036 6.49829 12.9964 6.50748L8.94049 11.6757L6.49512 9.23037C6.15301 8.88825 5.59832 8.88825 5.25621 9.23037C4.91409 9.57249 4.91409 10.1272 5.25621 10.4693L8.34742 13.5605C8.68954 13.9026 9.24422 13.9026 9.58634 13.5605C9.59396 13.5529 9.60115 13.5449 9.60788 13.5364L14.271 7.70751C14.6007 7.3645 14.5965 6.8192 14.2586 6.48127Z" fill="#48BB78"/>
</svg>
