<svg width="10" height="9" viewBox="0 0 10 9" fill="none" xmlns="http://www.w3.org/2000/svg">
<path d="M8.20309 5.50999L9.07879 5.94784C9.19126 6.00408 9.19126 6.16457 9.0788 6.2208L5.21575 8.15233C5.12983 8.19528 5.02871 8.19528 4.94279 8.15233L1.07975 6.2208C0.96728 6.16457 0.96728 6.00408 1.07975 5.94784L1.95545 5.50999L4.66983 6.86718C4.92758 6.99605 5.23096 6.99605 5.48871 6.86718L8.20309 5.50999Z" fill="black"/>
<path d="M4.94276 0.354194C5.02867 0.311236 5.1298 0.311236 5.21571 0.354194L9.07876 2.28572C9.19123 2.34195 9.19123 2.50244 9.07876 2.55868L5.21571 4.4902C5.1298 4.53316 5.02867 4.53316 4.94276 4.4902L1.07971 2.55868C0.967245 2.50244 0.967245 2.34195 1.07971 2.28572L4.94276 0.354194Z" fill="black"/>
<path d="M8.20309 3.67893L9.07879 4.11678C9.19126 4.17301 9.19126 4.33351 9.0788 4.38974L5.21575 6.32126C5.12983 6.36422 5.02871 6.36422 4.94279 6.32126L1.07975 4.38974C0.96728 4.33351 0.96728 4.17301 1.07975 4.11678L1.95545 3.67893L4.66983 5.03611C4.92758 5.16499 5.23096 5.16499 5.48871 5.03611L8.20309 3.67893Z" fill="black"/>
</svg>
