<svg width="9" height="9" viewBox="0 0 9 9" fill="none" xmlns="http://www.w3.org/2000/svg">
<path d="M1.39304 0.321976C0.829175 0.321976 0.37207 0.779081 0.37207 1.34295V7.46879C0.37207 8.03265 0.829175 8.48976 1.39304 8.48976H7.51888C8.08275 8.48976 8.53985 8.03265 8.53985 7.46879V1.34295C8.53985 0.779081 8.08275 0.321976 7.51888 0.321976H1.39304ZM6.16791 3.05489L3.10499 6.11781C3.00531 6.21749 2.8437 6.21749 2.74402 6.11781C2.64434 6.01813 2.64434 5.85652 2.74402 5.75684L5.80694 2.69392C5.90662 2.59424 6.06823 2.59424 6.16791 2.69392C6.26758 2.7936 6.26758 2.95521 6.16791 3.05489Z" fill="black"/>
</svg>
