<svg width="20" height="20" viewBox="0 0 20 20" fill="none" xmlns="http://www.w3.org/2000/svg">
<path fill-rule="evenodd" clip-rule="evenodd" d="M9.69538 4.08006C6.46987 4.08006 3.85507 6.69486 3.85507 9.92037C3.85507 13.1459 6.46987 15.7607 9.69538 15.7607C12.9209 15.7607 15.5357 13.1459 15.5357 9.92037C15.5357 9.04966 15.3455 8.22496 15.005 7.48419C14.8703 7.19112 14.9987 6.84433 15.2918 6.70962C15.5849 6.5749 15.9316 6.70328 16.0664 6.99636C16.4758 7.88705 16.7038 8.87788 16.7038 9.92037C16.7038 13.791 13.566 16.9287 9.69538 16.9287C5.82477 16.9287 2.68701 13.791 2.68701 9.92037C2.68701 6.04976 5.82477 2.912 9.69538 2.912V4.08006Z" fill="#4A5568"/>
<path d="M9.69538 5.79272V1.19934C9.69538 0.951761 9.98415 0.816512 10.1743 0.97501L12.9304 3.2717C13.0705 3.38845 13.0705 3.60362 12.9304 3.72037L10.1743 6.01706C9.98415 6.17555 9.69538 6.0403 9.69538 5.79272Z" fill="#4A5568"/>
</svg>
