<svg width="16" height="17" viewBox="0 0 16 17" fill="none" xmlns="http://www.w3.org/2000/svg">
<path d="M7.94418 8.38183C10.0417 8.38183 11.7421 6.58226 11.7421 4.36238C11.7421 2.14251 10.0417 0.342941 7.94418 0.342941C5.84666 0.342941 4.14628 2.14251 4.14628 4.36238C4.14628 6.58226 5.84666 8.38183 7.94418 8.38183ZM10.4761 4.36238C10.4761 5.8423 9.34252 7.04201 7.94418 7.04201C6.54583 7.04201 5.41225 5.8423 5.41225 4.36238C5.41225 2.88247 6.54583 1.68276 7.94418 1.68276C9.34252 1.68276 10.4761 2.88247 10.4761 4.36238Z" fill="#4A5568"/>
<path d="M15.54 15.0809C15.54 16.4207 14.274 16.4207 14.274 16.4207H1.61435C1.61435 16.4207 0.348389 16.4207 0.348389 15.0809C0.348389 13.7411 1.61435 9.72164 7.94418 9.72164C14.274 9.72164 15.54 13.7411 15.54 15.0809ZM14.274 15.0762C14.2722 14.7456 14.0793 13.7551 13.2206 12.8462C12.3948 11.9723 10.8421 11.0615 7.94416 11.0615C5.04623 11.0615 3.49349 11.9723 2.66776 12.8462C1.809 13.7551 1.61616 14.7456 1.61435 15.0762H14.274Z" fill="#4A5568"/>
</svg>
